# xmcd CD database file
#
# Track frame offsets:
#	150
#	6755
#	22063
#	35670
#	55958
#	68721
#	85935
#	101805
#	120751
#	130906
#	141198
#	156484
#	167481
#	186262
#	204920
#
# Disc length: 2990 seconds
#
# Revision: 0
# Processed by: cddbd v1.5.1PL2 Copyright (c) Steve Scherf et al.
# Submitted via: CDex 1.50beta10
#
DISCID=cb0bac0f
DTITLE=texas lightning  - meanwhile back to the ranch
DYEAR=2006
DGENRE=Country
TTITLE0=Bad Case Of Loving You
TTITLE1=Like a virgin
TTITLE2=No No Never
TTITLE3=Over the mountains(über den wolken)
TTITLE4=Cest la vie
TTITLE5=Highway to hell
TTITLE6=Dancing queen
TTITLE7=Man in the mirror
TTITLE8=Walkin After Midnight
TTITLE9=Norwegian wood
TTITLE10=Smoke smoke smoke
TTITLE11=Raindrops keep falling on my head
TTITLE12=Walk on the wild side
TTITLE13=Kiss
TTITLE14=Blue bayou
EXTD=YEAR: 2006
EXTT0=
EXTT1=
EXTT2=
EXTT3=
EXTT4=
EXTT5=
EXTT6=
EXTT7=
EXTT8=
EXTT9=
EXTT10=
EXTT11=
EXTT12=
EXTT13=
EXTT14=
PLAYORDER=
